<mxfile host="app.diagrams.net" modified="2023-10-27T16:55:53.037Z" agent="Mozilla/5.0 (Macintosh; Intel Mac OS X 10_15_7) AppleWebKit/537.36 (KHTML, like Gecko) Chrome/117.0.0.0 Safari/537.36 Edg/117.0.2045.40" version="22.0.8" etag="51gvJjQlab1tLH85HdwX" type="github">
  <diagram name="Page-1" id="tuzzLs4-vhopZclKhiN3">
    <mxGraphModel>
      <root>
        <mxCell id="0" />
        <mxCell id="1" parent="0" />
      </root>
    </mxGraphModel>
  </diagram>
</mxfile>
